# File created by Blade
# Date/Time:  Thu Jan 22 16:00:44 2015
# Frame Rate: 120.000 fps
#------------------------------------------------------
:FULLY-SPECIFIED
:DEGREES
2332
root 1.902513 37.117310 6.286667 -7.677086 1.282180 1.538392
RightUpLeg 16.082185 -2.120631 -3.284361
RightLeg -4.059925 -0.000000 0.000000
RightFoot -11.726130 -10.111422 17.382424
RightToeBase 13.737034 -0.000000 -0.000000
LeftUpLeg 12.421008 1.967501 5.125068
LeftLeg -1.750454 -0.000000 0.000000
LeftFoot -5.219013 5.205063 -18.718518
LeftToeBase 7.900166 -0.000000 -0.000000
Spine 22.085554 -5.432158 -13.009125
RightShoulder 7.562616 -43.560850 -17.860884
RightArm 23.036319 -66.933408 52.193694
RightForeArm -38.336261 0.000000 69.382862
RightHand 18.380358 -0.000000 -1.500938
RightHandThumb1 -24.326973 -0.000000 -32.862282
LeftShoulder -26.447579 47.475832 -0.019554
LeftArm 36.740926 3.636736 -38.654171
LeftForeArm 25.900308 -0.000000 46.673225
LeftHand -13.474708 -0.000000 -6.824031
LeftHandThumb1 -26.253704 0.000000 33.147579
Head 33.681644 -19.514561 -4.781678
2333
root 1.910703 37.117711 6.286950 -7.580615 1.295458 1.552230
RightUpLeg 15.992279 -2.077921 -3.296948
RightLeg -4.066637 -0.000000 0.000000
RightFoot -11.726422 -10.151898 17.392374
RightToeBase 13.729141 -0.000000 -0.000000
LeftUpLeg 12.342187 2.014638 5.103542
LeftLeg -1.787090 -0.000000 0.000000
LeftFoot -5.190745 5.167769 -18.718385
LeftToeBase 7.935341 -0.000000 -0.000000
Spine 21.911511 -5.604072 -13.086367
RightShoulder 7.352631 -43.242893 -17.854088
RightArm 22.183333 -66.024740 52.768882
RightForeArm -38.609307 0.000000 69.010413
RightHand 18.074690 -0.000000 -2.329628
RightHandThumb1 -24.326973 -0.000000 -32.862282
LeftShoulder -26.561871 47.419362 -0.110125
LeftArm 36.736128 3.338554 -38.810882
LeftForeArm 25.917102 0.000000 46.706830
LeftHand -13.521268 -0.000000 -6.565562
LeftHandThumb1 -26.253704 0.000000 33.147579
Head 34.120216 -19.781579 -5.071570
2334
root 1.919473 37.118678 6.288225 -7.490151 1.312299 1.557688
RightUpLeg 15.905814 -2.030822 -3.301211
RightLeg -4.061063 -0.000000 0.000000
RightFoot -11.744770 -10.196256 17.432379
RightToeBase 13.721934 -0.000000 -0.000000
LeftUpLeg 12.271550 2.044572 5.086573
LeftLeg -1.824391 -0.000000 0.000000
LeftFoot -5.165147 5.137065 -18.733471
LeftToeBase 7.896771 -0.000000 -0.000000
Spine 21.755693 -5.780145 -13.162422
RightShoulder 7.119477 -42.899247 -17.773155
RightArm 21.194758 -65.001218 53.440548
RightForeArm -38.887958 -0.000000 68.623351
RightHand 18.024057 -0.000000 -2.638595
RightHandThumb1 -24.326973 -0.000000 -32.862282
LeftShoulder -26.708631 47.300553 -0.203489
LeftArm 36.766424 3.035479 -38.965156
LeftForeArm 25.970086 -0.000000 46.669680
LeftHand -13.490424 -0.000000 -6.434264
LeftHandThumb1 -26.253704 0.000000 33.147579
Head 34.626779 -20.137464 -5.376092
2335
root 1.928719 37.118960 6.292139 -7.421437 1.338648 1.561358
RightUpLeg 15.849419 -2.013036 -3.311358
RightLeg -4.063628 -0.000000 0.000000
RightFoot -11.751465 -10.216501 17.460632
RightToeBase 13.729715 -0.000000 -0.000000
LeftUpLeg 12.231831 2.056345 5.069371
LeftLeg -1.874260 -0.000000 0.000000
LeftFoot -5.124017 5.103054 -18.671458
LeftToeBase 7.823817 -0.000000 -0.000000
Spine 21.598024 -5.978884 -13.236538
RightShoulder 6.961901 -42.687774 -17.758317
RightArm 20.401318 -63.793175 53.950784
RightForeArm -39.143042 -0.000000 68.210274
RightHand 17.835747 -0.000000 -2.938503
RightHandThumb1 -24.326973 -0.000000 -32.862282
LeftShoulder -26.827458 47.196918 -0.294858
LeftArm 36.790344 2.671517 -39.157001
LeftForeArm 26.028734 -0.000000 46.569849
LeftHand -13.375874 -0.000000 -6.627357
LeftHandThumb1 -26.253704 0.000000 33.147579
Head 35.178380 -20.444158 -5.677699
2336
root 1.937523 37.119111 6.297545 -7.372675 1.390613 1.577411
RightUpLeg 15.828118 -1.998806 -3.329963
RightLeg -4.084405 -0.000000 0.000000
RightFoot -11.767617 -10.273952 17.464600
RightToeBase 13.748503 -0.000000 -0.000000
LeftUpLeg 12.199630 2.054991 5.041966
LeftLeg -1.910274 -0.000000 0.000000
LeftFoot -5.119236 5.073916 -18.743244
LeftToeBase 7.938922 -0.000000 -0.000000
Spine 21.482575 -6.159634 -13.336491
RightShoulder 6.740007 -42.465699 -17.649150
RightArm 19.525805 -62.479129 54.523638
RightForeArm -39.303776 -0.000000 67.724830
RightHand 17.761167 -0.000000 -3.322226
RightHandThumb1 -24.326973 -0.000000 -32.862282
LeftShoulder -26.945664 47.053958 -0.342389
LeftArm 36.878498 2.394273 -39.274568
LeftForeArm 25.891903 0.000000 46.365327
LeftHand -13.498508 0.000000 -6.365836
LeftHandThumb1 -26.253704 0.000000 33.147579
Head 35.786183 -20.929094 -6.031807
2337
root 1.948472 37.119867 6.296354 -7.290480 1.409927 1.595530
RightUpLeg 15.750590 -1.907927 -3.339734
RightLeg -4.090195 -0.000000 0.000000
RightFoot -11.781270 -10.363118 17.489071
RightToeBase 13.698499 -0.000000 -0.000000
LeftUpLeg 12.128601 2.055482 5.003069
LeftLeg -1.938313 -0.000000 0.000000
LeftFoot -5.102393 5.079549 -18.737856
LeftToeBase 7.977423 -0.000000 -0.000000
Spine 21.337690 -6.306799 -13.422005
RightShoulder 6.447925 -42.260748 -17.466301
RightArm 18.661999 -61.023706 55.087287
RightForeArm -39.371908 -0.000000 67.212592
RightHand 17.512767 0.000000 -3.627321
RightHandThumb1 -24.326973 -0.000000 -32.862282
LeftShoulder -27.079192 46.922406 -0.409133
LeftArm 37.041725 2.015840 -39.460509
LeftForeArm 25.850159 -0.000000 46.090412
LeftHand -13.462382 0.000000 -6.303046
LeftHandThumb1 -26.253704 0.000000 33.147579
Head 36.445606 -21.461464 -6.362868
